/* XPM */
static char * by_xpm[] = {
"20 20 3 1",
" 	c None",
".	c #FFFFFF",
"+	c #FF0000",
"                    ",
"                    ",
"                    ",
"                    ",
"....................",
"....................",
"....................",
"....................",
"++++++++++++++++++++",
"++++++++++++++++++++",
"++++++++++++++++++++",
"++++++++++++++++++++",
"....................",
"....................",
"....................",
"....................",
"                    ",
"                    ",
"                    ",
"                    "};
