/* XPM */
static char * by_latin_xpm[] = {
"20 20 10 1",
" 	c None",
".	c #FFFFFF",
"+	c #000000",
"@	c #F3F3F3",
"#	c #FF0000",
"$	c #7D0000",
"%	c #730000",
"&	c #C70000",
"*	c #C20000",
"=	c #990000",
"                    ",
"                    ",
"                    ",
"                    ",
"....................",
"....................",
"........+...........",
"........+.@.........",
"########+$%#########",
"#######&+*##########",
"#######=+###########",
"########+###########",
"........+++++.......",
"....................",
"....................",
"....................",
"                    ",
"                    ",
"                    ",
"                    "};
