/* XPM */
static char * ru_xpm[] = {
"20 20 4 1",
" 	c None",
".	c #FFFFFF",
"+	c #0000FF",
"@	c #FF0000",
"                    ",
"                    ",
"                    ",
"                    ",
"....................",
"....................",
"....................",
"....................",
"++++++++++++++++++++",
"++++++++++++++++++++",
"++++++++++++++++++++",
"++++++++++++++++++++",
"@@@@@@@@@@@@@@@@@@@@",
"@@@@@@@@@@@@@@@@@@@@",
"@@@@@@@@@@@@@@@@@@@@",
"@@@@@@@@@@@@@@@@@@@@",
"                    ",
"                    ",
"                    ",
"                    "};
